<mxfile host="65bd71144e" pages="3">
    <diagram id="LW04lC6fbis4yoTu5XnE" name="VisNode">
        <mxGraphModel dx="433" dy="910" grid="1" gridSize="10" guides="1" tooltips="1" connect="1" arrows="1" fold="1" page="1" pageScale="1" pageWidth="827" pageHeight="1169" math="0" shadow="0">
            <root>
                <mxCell id="nKNUmHIOnN0cSyCz4pJH-0"/>
                <mxCell id="nKNUmHIOnN0cSyCz4pJH-1" parent="nKNUmHIOnN0cSyCz4pJH-0"/>
                <mxCell id="8a8e3VqY4Ii5wSMkJ3Wa-0" value="VisNode" style="swimlane;fontStyle=1;align=center;verticalAlign=top;childLayout=stackLayout;horizontal=1;startSize=26;horizontalStack=0;resizeParent=1;resizeParentMax=0;resizeLast=0;collapsible=1;marginBottom=0;fillColor=#e1d5e7;strokeColor=#9673a6;" vertex="1" parent="nKNUmHIOnN0cSyCz4pJH-1">
                    <mxGeometry x="180" y="130" width="310" height="320" as="geometry"/>
                </mxCell>
                <mxCell id="8a8e3VqY4Ii5wSMkJ3Wa-9" value="x : Number" style="text;align=left;verticalAlign=top;spacingLeft=4;spacingRight=4;overflow=hidden;rotatable=0;points=[[0,0.5],[1,0.5]];portConstraint=eastwest;" vertex="1" parent="8a8e3VqY4Ii5wSMkJ3Wa-0">
                    <mxGeometry y="26" width="310" height="26" as="geometry"/>
                </mxCell>
                <mxCell id="8a8e3VqY4Ii5wSMkJ3Wa-10" value="y : Number" style="text;strokeColor=none;fillColor=none;align=left;verticalAlign=top;spacingLeft=4;spacingRight=4;overflow=hidden;rotatable=0;points=[[0,0.5],[1,0.5]];portConstraint=eastwest;" vertex="1" parent="8a8e3VqY4Ii5wSMkJ3Wa-0">
                    <mxGeometry y="52" width="310" height="26" as="geometry"/>
                </mxCell>
                <mxCell id="8a8e3VqY4Ii5wSMkJ3Wa-11" value="newx : Number" style="text;strokeColor=none;fillColor=none;align=left;verticalAlign=top;spacingLeft=4;spacingRight=4;overflow=hidden;rotatable=0;points=[[0,0.5],[1,0.5]];portConstraint=eastwest;" vertex="1" parent="8a8e3VqY4Ii5wSMkJ3Wa-0">
                    <mxGeometry y="78" width="310" height="26" as="geometry"/>
                </mxCell>
                <mxCell id="8a8e3VqY4Ii5wSMkJ3Wa-12" value="newy : Number" style="text;strokeColor=none;fillColor=none;align=left;verticalAlign=top;spacingLeft=4;spacingRight=4;overflow=hidden;rotatable=0;points=[[0,0.5],[1,0.5]];portConstraint=eastwest;" vertex="1" parent="8a8e3VqY4Ii5wSMkJ3Wa-0">
                    <mxGeometry y="104" width="310" height="26" as="geometry"/>
                </mxCell>
                <mxCell id="8a8e3VqY4Ii5wSMkJ3Wa-15" value="lamdba: Number" style="text;strokeColor=none;fillColor=none;align=left;verticalAlign=top;spacingLeft=4;spacingRight=4;overflow=hidden;rotatable=0;points=[[0,0.5],[1,0.5]];portConstraint=eastwest;" vertex="1" parent="8a8e3VqY4Ii5wSMkJ3Wa-0">
                    <mxGeometry y="130" width="310" height="26" as="geometry"/>
                </mxCell>
                <mxCell id="8a8e3VqY4Ii5wSMkJ3Wa-14" value="drawy : Number" style="text;strokeColor=none;fillColor=none;align=left;verticalAlign=top;spacingLeft=4;spacingRight=4;overflow=hidden;rotatable=0;points=[[0,0.5],[1,0.5]];portConstraint=eastwest;" vertex="1" parent="8a8e3VqY4Ii5wSMkJ3Wa-0">
                    <mxGeometry y="156" width="310" height="26" as="geometry"/>
                </mxCell>
                <mxCell id="8a8e3VqY4Ii5wSMkJ3Wa-13" value="drawx : Number" style="text;strokeColor=none;fillColor=none;align=left;verticalAlign=top;spacingLeft=4;spacingRight=4;overflow=hidden;rotatable=0;points=[[0,0.5],[1,0.5]];portConstraint=eastwest;" vertex="1" parent="8a8e3VqY4Ii5wSMkJ3Wa-0">
                    <mxGeometry y="182" width="310" height="26" as="geometry"/>
                </mxCell>
                <mxCell id="8a8e3VqY4Ii5wSMkJ3Wa-16" value="round: Number" style="text;strokeColor=none;fillColor=none;align=left;verticalAlign=top;spacingLeft=4;spacingRight=4;overflow=hidden;rotatable=0;points=[[0,0.5],[1,0.5]];portConstraint=eastwest;" vertex="1" parent="8a8e3VqY4Ii5wSMkJ3Wa-0">
                    <mxGeometry y="208" width="310" height="26" as="geometry"/>
                </mxCell>
                <mxCell id="8a8e3VqY4Ii5wSMkJ3Wa-17" value="dir: Number" style="text;strokeColor=none;fillColor=none;align=left;verticalAlign=top;spacingLeft=4;spacingRight=4;overflow=hidden;rotatable=0;points=[[0,0.5],[1,0.5]];portConstraint=eastwest;" vertex="1" parent="8a8e3VqY4Ii5wSMkJ3Wa-0">
                    <mxGeometry y="234" width="310" height="26" as="geometry"/>
                </mxCell>
                <mxCell id="8a8e3VqY4Ii5wSMkJ3Wa-2" value="" style="line;strokeWidth=1;fillColor=none;align=left;verticalAlign=middle;spacingTop=-1;spacingLeft=3;spacingRight=3;rotatable=0;labelPosition=right;points=[];portConstraint=eastwest;" vertex="1" parent="8a8e3VqY4Ii5wSMkJ3Wa-0">
                    <mxGeometry y="260" width="310" height="8" as="geometry"/>
                </mxCell>
                <mxCell id="8a8e3VqY4Ii5wSMkJ3Wa-3" value="+ constructor(val : Number, color : String) : void&#10;" style="text;strokeColor=none;fillColor=none;align=left;verticalAlign=top;spacingLeft=4;spacingRight=4;overflow=hidden;rotatable=0;points=[[0,0.5],[1,0.5]];portConstraint=eastwest;" vertex="1" parent="8a8e3VqY4Ii5wSMkJ3Wa-0">
                    <mxGeometry y="268" width="310" height="26" as="geometry"/>
                </mxCell>
                <mxCell id="8a8e3VqY4Ii5wSMkJ3Wa-8" value="+ Copy() : VisNode&#10;" style="text;strokeColor=none;fillColor=none;align=left;verticalAlign=top;spacingLeft=4;spacingRight=4;overflow=hidden;rotatable=0;points=[[0,0.5],[1,0.5]];portConstraint=eastwest;" vertex="1" parent="8a8e3VqY4Ii5wSMkJ3Wa-0">
                    <mxGeometry y="294" width="310" height="26" as="geometry"/>
                </mxCell>
            </root>
        </mxGraphModel>
    </diagram>
    <diagram id="DsQ5KAm2MF1nppkDPVw5" name="Classes">
        <mxGraphModel dx="1184" dy="910" grid="1" gridSize="10" guides="1" tooltips="1" connect="1" arrows="1" fold="1" page="1" pageScale="1" pageWidth="827" pageHeight="1169" math="0" shadow="0">
            <root>
                <mxCell id="0"/>
                <mxCell id="1" parent="0"/>
                <mxCell id="2lKy3ovgWCepzrDPhpKE-49" style="edgeStyle=orthogonalEdgeStyle;rounded=0;orthogonalLoop=1;jettySize=auto;html=1;entryX=0.429;entryY=0;entryDx=0;entryDy=0;entryPerimeter=0;startArrow=none;startFill=0;" parent="1" source="2lKy3ovgWCepzrDPhpKE-1" target="2lKy3ovgWCepzrDPhpKE-34" edge="1">
                    <mxGeometry relative="1" as="geometry"/>
                </mxCell>
                <mxCell id="2lKy3ovgWCepzrDPhpKE-1" value="TreeUI" style="swimlane;fontStyle=0;childLayout=stackLayout;horizontal=1;startSize=26;fillColor=#d5e8d4;horizontalStack=0;resizeParent=1;resizeParentMax=0;resizeLast=0;collapsible=1;marginBottom=0;strokeColor=#82b366;" parent="1" vertex="1">
                    <mxGeometry x="80" y="110" width="140" height="96" as="geometry"/>
                </mxCell>
                <mxCell id="2lKy3ovgWCepzrDPhpKE-7" value="+ treeVisualizer: &#10;&#10;TreeVisualizer" style="text;strokeColor=none;fillColor=none;align=left;verticalAlign=top;spacingLeft=4;spacingRight=4;overflow=hidden;rotatable=0;points=[[0,0.5],[1,0.5]];portConstraint=eastwest;" parent="2lKy3ovgWCepzrDPhpKE-1" vertex="1">
                    <mxGeometry y="26" width="140" height="44" as="geometry"/>
                </mxCell>
                <mxCell id="2lKy3ovgWCepzrDPhpKE-3" value="others.." style="text;strokeColor=none;fillColor=none;align=left;verticalAlign=top;spacingLeft=4;spacingRight=4;overflow=hidden;rotatable=0;points=[[0,0.5],[1,0.5]];portConstraint=eastwest;" parent="2lKy3ovgWCepzrDPhpKE-1" vertex="1">
                    <mxGeometry y="70" width="140" height="26" as="geometry"/>
                </mxCell>
                <mxCell id="2lKy3ovgWCepzrDPhpKE-39" style="edgeStyle=orthogonalEdgeStyle;rounded=0;orthogonalLoop=1;jettySize=auto;html=1;" parent="1" source="2lKy3ovgWCepzrDPhpKE-10" target="2lKy3ovgWCepzrDPhpKE-7" edge="1">
                    <mxGeometry relative="1" as="geometry"/>
                </mxCell>
                <mxCell id="2lKy3ovgWCepzrDPhpKE-10" value="TreeVisualizer" style="swimlane;fontStyle=0;childLayout=stackLayout;horizontal=1;startSize=26;fillColor=#dae8fc;horizontalStack=0;resizeParent=1;resizeParentMax=0;resizeLast=0;collapsible=1;marginBottom=0;strokeColor=#6c8ebf;" parent="1" vertex="1">
                    <mxGeometry x="260" y="110" width="140" height="104" as="geometry"/>
                </mxCell>
                <mxCell id="2lKy3ovgWCepzrDPhpKE-11" value="+ tree: VisRBTree" style="text;strokeColor=none;fillColor=none;align=left;verticalAlign=top;spacingLeft=4;spacingRight=4;overflow=hidden;rotatable=0;points=[[0,0.5],[1,0.5]];portConstraint=eastwest;" parent="2lKy3ovgWCepzrDPhpKE-10" vertex="1">
                    <mxGeometry y="26" width="140" height="26" as="geometry"/>
                </mxCell>
                <mxCell id="2lKy3ovgWCepzrDPhpKE-59" value="+ vistree: VisRBTree" style="text;strokeColor=none;fillColor=none;align=left;verticalAlign=top;spacingLeft=4;spacingRight=4;overflow=hidden;rotatable=0;points=[[0,0.5],[1,0.5]];portConstraint=eastwest;" parent="2lKy3ovgWCepzrDPhpKE-10" vertex="1">
                    <mxGeometry y="52" width="140" height="26" as="geometry"/>
                </mxCell>
                <mxCell id="2lKy3ovgWCepzrDPhpKE-12" value="others.." style="text;strokeColor=none;fillColor=none;align=left;verticalAlign=top;spacingLeft=4;spacingRight=4;overflow=hidden;rotatable=0;points=[[0,0.5],[1,0.5]];portConstraint=eastwest;" parent="2lKy3ovgWCepzrDPhpKE-10" vertex="1">
                    <mxGeometry y="78" width="140" height="26" as="geometry"/>
                </mxCell>
                <mxCell id="2lKy3ovgWCepzrDPhpKE-40" style="edgeStyle=orthogonalEdgeStyle;rounded=0;orthogonalLoop=1;jettySize=auto;html=1;entryX=1;entryY=0.5;entryDx=0;entryDy=0;" parent="1" source="2lKy3ovgWCepzrDPhpKE-13" target="2lKy3ovgWCepzrDPhpKE-10" edge="1">
                    <mxGeometry relative="1" as="geometry"/>
                </mxCell>
                <mxCell id="2lKy3ovgWCepzrDPhpKE-13" value="VisRBTree" style="swimlane;fontStyle=0;childLayout=stackLayout;horizontal=1;startSize=26;fillColor=#dae8fc;horizontalStack=0;resizeParent=1;resizeParentMax=0;resizeLast=0;collapsible=1;marginBottom=0;strokeColor=#6c8ebf;" parent="1" vertex="1">
                    <mxGeometry x="430" y="110" width="140" height="78" as="geometry"/>
                </mxCell>
                <mxCell id="2lKy3ovgWCepzrDPhpKE-14" value="+ root: VisNode" style="text;strokeColor=none;fillColor=none;align=left;verticalAlign=top;spacingLeft=4;spacingRight=4;overflow=hidden;rotatable=0;points=[[0,0.5],[1,0.5]];portConstraint=eastwest;" parent="2lKy3ovgWCepzrDPhpKE-13" vertex="1">
                    <mxGeometry y="26" width="140" height="26" as="geometry"/>
                </mxCell>
                <mxCell id="2lKy3ovgWCepzrDPhpKE-15" value="others.." style="text;strokeColor=none;fillColor=none;align=left;verticalAlign=top;spacingLeft=4;spacingRight=4;overflow=hidden;rotatable=0;points=[[0,0.5],[1,0.5]];portConstraint=eastwest;" parent="2lKy3ovgWCepzrDPhpKE-13" vertex="1">
                    <mxGeometry y="52" width="140" height="26" as="geometry"/>
                </mxCell>
                <mxCell id="2lKy3ovgWCepzrDPhpKE-43" style="edgeStyle=orthogonalEdgeStyle;rounded=0;orthogonalLoop=1;jettySize=auto;html=1;entryX=0.75;entryY=1;entryDx=0;entryDy=0;startArrow=none;startFill=0;" parent="1" source="2lKy3ovgWCepzrDPhpKE-16" target="2lKy3ovgWCepzrDPhpKE-13" edge="1">
                    <mxGeometry relative="1" as="geometry"/>
                </mxCell>
                <mxCell id="2lKy3ovgWCepzrDPhpKE-16" value="VisNode" style="swimlane;fontStyle=0;childLayout=stackLayout;horizontal=1;startSize=26;fillColor=#e1d5e7;horizontalStack=0;resizeParent=1;resizeParentMax=0;resizeLast=0;collapsible=1;marginBottom=0;strokeColor=#9673a6;" parent="1" vertex="1">
                    <mxGeometry x="620" y="182" width="140" height="52" as="geometry"/>
                </mxCell>
                <mxCell id="2lKy3ovgWCepzrDPhpKE-18" value="others.." style="text;strokeColor=none;fillColor=none;align=left;verticalAlign=top;spacingLeft=4;spacingRight=4;overflow=hidden;rotatable=0;points=[[0,0.5],[1,0.5]];portConstraint=eastwest;" parent="2lKy3ovgWCepzrDPhpKE-16" vertex="1">
                    <mxGeometry y="26" width="140" height="26" as="geometry"/>
                </mxCell>
                <mxCell id="2lKy3ovgWCepzrDPhpKE-46" style="edgeStyle=orthogonalEdgeStyle;rounded=0;orthogonalLoop=1;jettySize=auto;html=1;entryX=0.5;entryY=0;entryDx=0;entryDy=0;startArrow=none;startFill=0;" parent="1" source="2lKy3ovgWCepzrDPhpKE-19" target="2lKy3ovgWCepzrDPhpKE-25" edge="1">
                    <mxGeometry relative="1" as="geometry"/>
                </mxCell>
                <mxCell id="2lKy3ovgWCepzrDPhpKE-19" value="RBTree" style="swimlane;fontStyle=0;childLayout=stackLayout;horizontal=1;startSize=26;fillColor=#e1d5e7;horizontalStack=0;resizeParent=1;resizeParentMax=0;resizeLast=0;collapsible=1;marginBottom=0;strokeColor=#9673a6;" parent="1" vertex="1">
                    <mxGeometry x="430" y="260" width="140" height="78" as="geometry"/>
                </mxCell>
                <mxCell id="2lKy3ovgWCepzrDPhpKE-20" value="+ root : RBNode" style="text;strokeColor=none;fillColor=none;align=left;verticalAlign=top;spacingLeft=4;spacingRight=4;overflow=hidden;rotatable=0;points=[[0,0.5],[1,0.5]];portConstraint=eastwest;" parent="2lKy3ovgWCepzrDPhpKE-19" vertex="1">
                    <mxGeometry y="26" width="140" height="26" as="geometry"/>
                </mxCell>
                <mxCell id="2lKy3ovgWCepzrDPhpKE-21" value="others.." style="text;strokeColor=none;fillColor=none;align=left;verticalAlign=top;spacingLeft=4;spacingRight=4;overflow=hidden;rotatable=0;points=[[0,0.5],[1,0.5]];portConstraint=eastwest;" parent="2lKy3ovgWCepzrDPhpKE-19" vertex="1">
                    <mxGeometry y="52" width="140" height="26" as="geometry"/>
                </mxCell>
                <mxCell id="2lKy3ovgWCepzrDPhpKE-45" style="edgeStyle=orthogonalEdgeStyle;rounded=0;orthogonalLoop=1;jettySize=auto;html=1;entryX=1;entryY=0.5;entryDx=0;entryDy=0;startArrow=none;startFill=0;" parent="1" source="2lKy3ovgWCepzrDPhpKE-22" target="2lKy3ovgWCepzrDPhpKE-21" edge="1">
                    <mxGeometry relative="1" as="geometry"/>
                </mxCell>
                <mxCell id="2lKy3ovgWCepzrDPhpKE-22" value="RBNode" style="swimlane;fontStyle=0;childLayout=stackLayout;horizontal=1;startSize=26;fillColor=#e1d5e7;horizontalStack=0;resizeParent=1;resizeParentMax=0;resizeLast=0;collapsible=1;marginBottom=0;strokeColor=#9673a6;" parent="1" vertex="1">
                    <mxGeometry x="620" y="338" width="140" height="52" as="geometry"/>
                </mxCell>
                <mxCell id="2lKy3ovgWCepzrDPhpKE-24" value="others.." style="text;strokeColor=none;fillColor=none;align=left;verticalAlign=top;spacingLeft=4;spacingRight=4;overflow=hidden;rotatable=0;points=[[0,0.5],[1,0.5]];portConstraint=eastwest;" parent="2lKy3ovgWCepzrDPhpKE-22" vertex="1">
                    <mxGeometry y="26" width="140" height="26" as="geometry"/>
                </mxCell>
                <mxCell id="2lKy3ovgWCepzrDPhpKE-25" value="DiagramTree" style="swimlane;fontStyle=0;childLayout=stackLayout;horizontal=1;startSize=26;fillColor=#dae8fc;horizontalStack=0;resizeParent=1;resizeParentMax=0;resizeLast=0;collapsible=1;marginBottom=0;strokeColor=#6c8ebf;" parent="1" vertex="1">
                    <mxGeometry x="430" y="390" width="140" height="78" as="geometry"/>
                </mxCell>
                <mxCell id="2lKy3ovgWCepzrDPhpKE-26" value="+ field: type" style="text;strokeColor=none;fillColor=none;align=left;verticalAlign=top;spacingLeft=4;spacingRight=4;overflow=hidden;rotatable=0;points=[[0,0.5],[1,0.5]];portConstraint=eastwest;" parent="2lKy3ovgWCepzrDPhpKE-25" vertex="1">
                    <mxGeometry y="26" width="140" height="26" as="geometry"/>
                </mxCell>
                <mxCell id="2lKy3ovgWCepzrDPhpKE-27" value="others.." style="text;strokeColor=none;fillColor=none;align=left;verticalAlign=top;spacingLeft=4;spacingRight=4;overflow=hidden;rotatable=0;points=[[0,0.5],[1,0.5]];portConstraint=eastwest;" parent="2lKy3ovgWCepzrDPhpKE-25" vertex="1">
                    <mxGeometry y="52" width="140" height="26" as="geometry"/>
                </mxCell>
                <mxCell id="2lKy3ovgWCepzrDPhpKE-42" style="edgeStyle=orthogonalEdgeStyle;rounded=0;orthogonalLoop=1;jettySize=auto;html=1;entryX=1;entryY=0.5;entryDx=0;entryDy=0;startArrow=none;startFill=0;" parent="1" source="2lKy3ovgWCepzrDPhpKE-28" target="2lKy3ovgWCepzrDPhpKE-14" edge="1">
                    <mxGeometry relative="1" as="geometry"/>
                </mxCell>
                <mxCell id="2lKy3ovgWCepzrDPhpKE-28" value="VisElement" style="swimlane;fontStyle=0;childLayout=stackLayout;horizontal=1;startSize=26;fillColor=#e1d5e7;horizontalStack=0;resizeParent=1;resizeParentMax=0;resizeLast=0;collapsible=1;marginBottom=0;strokeColor=#9673a6;" parent="1" vertex="1">
                    <mxGeometry x="620" y="110" width="140" height="52" as="geometry"/>
                </mxCell>
                <mxCell id="2lKy3ovgWCepzrDPhpKE-30" value="others.." style="text;strokeColor=none;fillColor=none;align=left;verticalAlign=top;spacingLeft=4;spacingRight=4;overflow=hidden;rotatable=0;points=[[0,0.5],[1,0.5]];portConstraint=eastwest;" parent="2lKy3ovgWCepzrDPhpKE-28" vertex="1">
                    <mxGeometry y="26" width="140" height="26" as="geometry"/>
                </mxCell>
                <mxCell id="2lKy3ovgWCepzrDPhpKE-57" style="edgeStyle=orthogonalEdgeStyle;rounded=0;orthogonalLoop=1;jettySize=auto;html=1;entryX=0.5;entryY=0;entryDx=0;entryDy=0;startArrow=none;startFill=0;" parent="1" source="2lKy3ovgWCepzrDPhpKE-31" target="2lKy3ovgWCepzrDPhpKE-38" edge="1">
                    <mxGeometry relative="1" as="geometry"/>
                </mxCell>
                <mxCell id="2lKy3ovgWCepzrDPhpKE-31" value="sketchDiagram.js" style="swimlane;fontStyle=0;childLayout=stackLayout;horizontal=1;startSize=26;fillColor=#fff2cc;horizontalStack=0;resizeParent=1;resizeParentMax=0;resizeLast=0;collapsible=1;marginBottom=0;strokeColor=#d6b656;" parent="1" vertex="1">
                    <mxGeometry x="260" y="390" width="140" height="52" as="geometry"/>
                </mxCell>
                <mxCell id="2lKy3ovgWCepzrDPhpKE-32" value="setup()" style="text;strokeColor=none;fillColor=none;align=left;verticalAlign=top;spacingLeft=4;spacingRight=4;overflow=hidden;rotatable=0;points=[[0,0.5],[1,0.5]];portConstraint=eastwest;" parent="2lKy3ovgWCepzrDPhpKE-31" vertex="1">
                    <mxGeometry y="26" width="140" height="26" as="geometry"/>
                </mxCell>
                <mxCell id="2lKy3ovgWCepzrDPhpKE-56" style="edgeStyle=orthogonalEdgeStyle;rounded=0;orthogonalLoop=1;jettySize=auto;html=1;entryX=0.5;entryY=0;entryDx=0;entryDy=0;startArrow=none;startFill=0;" parent="1" source="2lKy3ovgWCepzrDPhpKE-34" target="2lKy3ovgWCepzrDPhpKE-37" edge="1">
                    <mxGeometry relative="1" as="geometry"/>
                </mxCell>
                <mxCell id="2lKy3ovgWCepzrDPhpKE-34" value="sketch.js" style="swimlane;fontStyle=0;childLayout=stackLayout;horizontal=1;startSize=26;fillColor=#fff2cc;horizontalStack=0;resizeParent=1;resizeParentMax=0;resizeLast=0;collapsible=1;marginBottom=0;strokeColor=#d6b656;" parent="1" vertex="1">
                    <mxGeometry x="90" y="250" width="140" height="78" as="geometry"/>
                </mxCell>
                <mxCell id="2lKy3ovgWCepzrDPhpKE-35" value="setup()" style="text;strokeColor=none;fillColor=none;align=left;verticalAlign=top;spacingLeft=4;spacingRight=4;overflow=hidden;rotatable=0;points=[[0,0.5],[1,0.5]];portConstraint=eastwest;" parent="2lKy3ovgWCepzrDPhpKE-34" vertex="1">
                    <mxGeometry y="26" width="140" height="26" as="geometry"/>
                </mxCell>
                <mxCell id="2lKy3ovgWCepzrDPhpKE-36" value="draw()" style="text;strokeColor=none;fillColor=none;align=left;verticalAlign=top;spacingLeft=4;spacingRight=4;overflow=hidden;rotatable=0;points=[[0,0.5],[1,0.5]];portConstraint=eastwest;" parent="2lKy3ovgWCepzrDPhpKE-34" vertex="1">
                    <mxGeometry y="52" width="140" height="26" as="geometry"/>
                </mxCell>
                <mxCell id="2lKy3ovgWCepzrDPhpKE-37" value="index.html" style="html=1;fillColor=#f8cecc;strokeColor=#b85450;" parent="1" vertex="1">
                    <mxGeometry x="90" y="360" width="140" height="50" as="geometry"/>
                </mxCell>
                <mxCell id="2lKy3ovgWCepzrDPhpKE-38" value="diagram.html" style="html=1;fillColor=#f8cecc;strokeColor=#b85450;" parent="1" vertex="1">
                    <mxGeometry x="260" y="490" width="140" height="50" as="geometry"/>
                </mxCell>
                <mxCell id="2lKy3ovgWCepzrDPhpKE-47" style="edgeStyle=orthogonalEdgeStyle;rounded=0;orthogonalLoop=1;jettySize=auto;html=1;entryX=1;entryY=0.25;entryDx=0;entryDy=0;startArrow=none;startFill=0;" parent="1" source="2lKy3ovgWCepzrDPhpKE-26" target="2lKy3ovgWCepzrDPhpKE-31" edge="1">
                    <mxGeometry relative="1" as="geometry"/>
                </mxCell>
                <mxCell id="2lKy3ovgWCepzrDPhpKE-55" style="edgeStyle=orthogonalEdgeStyle;rounded=0;orthogonalLoop=1;jettySize=auto;html=1;startArrow=none;startFill=0;" parent="1" source="2lKy3ovgWCepzrDPhpKE-51" edge="1">
                    <mxGeometry relative="1" as="geometry">
                        <mxPoint x="220" y="184" as="targetPoint"/>
                        <Array as="points">
                            <mxPoint x="240" y="289"/>
                            <mxPoint x="240" y="184"/>
                        </Array>
                    </mxGeometry>
                </mxCell>
                <mxCell id="2lKy3ovgWCepzrDPhpKE-51" value="Tester" style="swimlane;fontStyle=0;childLayout=stackLayout;horizontal=1;startSize=26;fillColor=#ffe6cc;horizontalStack=0;resizeParent=1;resizeParentMax=0;resizeLast=0;collapsible=1;marginBottom=0;strokeColor=#d79b00;" parent="1" vertex="1">
                    <mxGeometry x="275" y="244" width="110" height="90" as="geometry"/>
                </mxCell>
                <mxCell id="2lKy3ovgWCepzrDPhpKE-60" value="Extends" style="endArrow=block;endSize=16;endFill=0;html=1;exitX=0.5;exitY=0;exitDx=0;exitDy=0;" parent="1" source="2lKy3ovgWCepzrDPhpKE-22" target="2lKy3ovgWCepzrDPhpKE-18" edge="1">
                    <mxGeometry width="160" relative="1" as="geometry">
                        <mxPoint x="686" y="330" as="sourcePoint"/>
                        <mxPoint x="770" y="460" as="targetPoint"/>
                    </mxGeometry>
                </mxCell>
                <mxCell id="2lKy3ovgWCepzrDPhpKE-61" value="Extends" style="endArrow=block;endSize=16;endFill=0;html=1;exitX=0.5;exitY=0;exitDx=0;exitDy=0;" parent="1" source="2lKy3ovgWCepzrDPhpKE-19" edge="1">
                    <mxGeometry width="160" relative="1" as="geometry">
                        <mxPoint x="510" y="240" as="sourcePoint"/>
                        <mxPoint x="499.5" y="188" as="targetPoint"/>
                    </mxGeometry>
                </mxCell>
            </root>
        </mxGraphModel>
    </diagram>
    <diagram id="FxLO4EYUs6buga8EPF6b" name="RBTree">
        &#xa;        &#xa;&#xa;
        <mxGraphModel dx="425" dy="899" grid="1" gridSize="10" guides="1" tooltips="1" connect="1" arrows="1" fold="1" page="1" pageScale="1" pageWidth="827" pageHeight="1169" math="0" shadow="0">
            &#xa;            &#xa;&#xa;
            <root>
                &#xa;                &#xa;&#xa;
                <mxCell id="03L67FYeV3gO628BtxWk-0"/>
                &#xa;                &#xa;&#xa;
                <mxCell id="03L67FYeV3gO628BtxWk-1" parent="03L67FYeV3gO628BtxWk-0"/>
                &#xa;                &#xa;&#xa;
                <mxCell id="LjS0itBTFE6gZPtvTSfW-0" value="RBTree" style="swimlane;fontStyle=1;align=center;verticalAlign=top;childLayout=stackLayout;horizontal=1;startSize=26;horizontalStack=0;resizeParent=1;resizeParentMax=0;resizeLast=0;collapsible=1;marginBottom=0;fillColor=#e1d5e7;strokeColor=#9673a6;" vertex="1" parent="03L67FYeV3gO628BtxWk-1">
                    &#xa;                    &#xa;&#xa;
                    <mxGeometry x="259" y="40" width="310" height="346" as="geometry"/>
                    &#xa;                    &#xa;&#xa;
                </mxCell>
                &#xa;                &#xa;&#xa;
                <mxCell id="LjS0itBTFE6gZPtvTSfW-1" value="+ root: RBNode" style="text;strokeColor=none;fillColor=none;align=left;verticalAlign=top;spacingLeft=4;spacingRight=4;overflow=hidden;rotatable=0;points=[[0,0.5],[1,0.5]];portConstraint=eastwest;" vertex="1" parent="LjS0itBTFE6gZPtvTSfW-0">
                    &#xa;                    &#xa;&#xa;
                    <mxGeometry y="26" width="310" height="26" as="geometry"/>
                    &#xa;                    &#xa;&#xa;
                </mxCell>
                &#xa;                &#xa;&#xa;
                <mxCell id="LjS0itBTFE6gZPtvTSfW-2" value="+ nil: RBNode" style="text;strokeColor=none;fillColor=none;align=left;verticalAlign=top;spacingLeft=4;spacingRight=4;overflow=hidden;rotatable=0;points=[[0,0.5],[1,0.5]];portConstraint=eastwest;" vertex="1" parent="LjS0itBTFE6gZPtvTSfW-0">
                    &#xa;                    &#xa;&#xa;
                    <mxGeometry y="52" width="310" height="26" as="geometry"/>
                    &#xa;                    &#xa;&#xa;
                </mxCell>
                &#xa;                &#xa;&#xa;
                <mxCell id="LjS0itBTFE6gZPtvTSfW-6" value="" style="line;strokeWidth=1;fillColor=none;align=left;verticalAlign=middle;spacingTop=-1;spacingLeft=3;spacingRight=3;rotatable=0;labelPosition=right;points=[];portConstraint=eastwest;" vertex="1" parent="LjS0itBTFE6gZPtvTSfW-0">
                    &#xa;                    &#xa;&#xa;
                    <mxGeometry y="78" width="310" height="8" as="geometry"/>
                    &#xa;                    &#xa;&#xa;
                </mxCell>
                &#xa;                &#xa;&#xa;
                <mxCell id="LjS0itBTFE6gZPtvTSfW-7" value="+ constructor(val : Number, color : String) : void&#10;" style="text;strokeColor=none;fillColor=none;align=left;verticalAlign=top;spacingLeft=4;spacingRight=4;overflow=hidden;rotatable=0;points=[[0,0.5],[1,0.5]];portConstraint=eastwest;" vertex="1" parent="LjS0itBTFE6gZPtvTSfW-0">
                    &#xa;                    &#xa;&#xa;
                    <mxGeometry y="86" width="310" height="26" as="geometry"/>
                    &#xa;                    &#xa;&#xa;
                </mxCell>
                &#xa;                &#xa;&#xa;
                <mxCell id="LjS0itBTFE6gZPtvTSfW-8" value="+ addValue(val : Number) : void" style="text;strokeColor=none;fillColor=none;align=left;verticalAlign=top;spacingLeft=4;spacingRight=4;overflow=hidden;rotatable=0;points=[[0,0.5],[1,0.5]];portConstraint=eastwest;" vertex="1" parent="LjS0itBTFE6gZPtvTSfW-0">
                    &#xa;                    &#xa;&#xa;
                    <mxGeometry y="112" width="310" height="26" as="geometry"/>
                    &#xa;                    &#xa;&#xa;
                </mxCell>
                &#xa;                &#xa;&#xa;
                <mxCell id="LjS0itBTFE6gZPtvTSfW-16" value="+ fixAdd(z : RBNode) : void" style="text;strokeColor=none;fillColor=none;align=left;verticalAlign=top;spacingLeft=4;spacingRight=4;overflow=hidden;rotatable=0;points=[[0,0.5],[1,0.5]];portConstraint=eastwest;" vertex="1" parent="LjS0itBTFE6gZPtvTSfW-0">
                    &#xa;                    &#xa;&#xa;
                    <mxGeometry y="138" width="310" height="26" as="geometry"/>
                    &#xa;                    &#xa;&#xa;
                </mxCell>
                &#xa;                &#xa;&#xa;
                <mxCell id="LjS0itBTFE6gZPtvTSfW-10" value="+ delValue(x :  Number) : void" style="text;strokeColor=none;fillColor=none;align=left;verticalAlign=top;spacingLeft=4;spacingRight=4;overflow=hidden;rotatable=0;points=[[0,0.5],[1,0.5]];portConstraint=eastwest;" vertex="1" parent="LjS0itBTFE6gZPtvTSfW-0">
                    &#xa;                    &#xa;&#xa;
                    <mxGeometry y="164" width="310" height="26" as="geometry"/>
                    &#xa;                    &#xa;&#xa;
                </mxCell>
                &#xa;                &#xa;&#xa;
                <mxCell id="LjS0itBTFE6gZPtvTSfW-11" value="+ fixDel(x : RBNode) : void" style="text;strokeColor=none;fillColor=none;align=left;verticalAlign=top;spacingLeft=4;spacingRight=4;overflow=hidden;rotatable=0;points=[[0,0.5],[1,0.5]];portConstraint=eastwest;" vertex="1" parent="LjS0itBTFE6gZPtvTSfW-0">
                    &#xa;                    &#xa;&#xa;
                    <mxGeometry y="190" width="310" height="26" as="geometry"/>
                    &#xa;                    &#xa;&#xa;
                </mxCell>
                &#xa;                &#xa;&#xa;
                <mxCell id="LjS0itBTFE6gZPtvTSfW-9" value="+ find(k : Number) : RBNode" style="text;strokeColor=none;fillColor=none;align=left;verticalAlign=top;spacingLeft=4;spacingRight=4;overflow=hidden;rotatable=0;points=[[0,0.5],[1,0.5]];portConstraint=eastwest;" vertex="1" parent="LjS0itBTFE6gZPtvTSfW-0">
                    &#xa;                    &#xa;&#xa;
                    <mxGeometry y="216" width="310" height="26" as="geometry"/>
                    &#xa;                    &#xa;&#xa;
                </mxCell>
                &#xa;                &#xa;&#xa;
                <mxCell id="LjS0itBTFE6gZPtvTSfW-14" value="+ max(node : RBNode ) : RBNode" style="text;strokeColor=none;fillColor=none;align=left;verticalAlign=top;spacingLeft=4;spacingRight=4;overflow=hidden;rotatable=0;points=[[0,0.5],[1,0.5]];portConstraint=eastwest;" vertex="1" parent="LjS0itBTFE6gZPtvTSfW-0">
                    &#xa;                    &#xa;&#xa;
                    <mxGeometry y="242" width="310" height="26" as="geometry"/>
                    &#xa;                    &#xa;&#xa;
                </mxCell>
                &#xa;                &#xa;&#xa;
                <mxCell id="LjS0itBTFE6gZPtvTSfW-12" value="+ min(node : RBNode ) : RBNode" style="text;strokeColor=none;fillColor=none;align=left;verticalAlign=top;spacingLeft=4;spacingRight=4;overflow=hidden;rotatable=0;points=[[0,0.5],[1,0.5]];portConstraint=eastwest;" vertex="1" parent="LjS0itBTFE6gZPtvTSfW-0">
                    &#xa;                    &#xa;&#xa;
                    <mxGeometry y="268" width="310" height="26" as="geometry"/>
                    &#xa;                    &#xa;&#xa;
                </mxCell>
                &#xa;                &#xa;&#xa;
                <mxCell id="LjS0itBTFE6gZPtvTSfW-13" value="+ leftRound(x : RBNode) : void" style="text;strokeColor=none;fillColor=none;align=left;verticalAlign=top;spacingLeft=4;spacingRight=4;overflow=hidden;rotatable=0;points=[[0,0.5],[1,0.5]];portConstraint=eastwest;" vertex="1" parent="LjS0itBTFE6gZPtvTSfW-0">
                    &#xa;                    &#xa;&#xa;
                    <mxGeometry y="294" width="310" height="26" as="geometry"/>
                    &#xa;                    &#xa;&#xa;
                </mxCell>
                &#xa;                &#xa;&#xa;
                <mxCell id="LjS0itBTFE6gZPtvTSfW-15" value="+ rightRound(x: RBNode) : void" style="text;strokeColor=none;fillColor=none;align=left;verticalAlign=top;spacingLeft=4;spacingRight=4;overflow=hidden;rotatable=0;points=[[0,0.5],[1,0.5]];portConstraint=eastwest;" vertex="1" parent="LjS0itBTFE6gZPtvTSfW-0">
                    &#xa;                    &#xa;&#xa;
                    <mxGeometry y="320" width="310" height="26" as="geometry"/>
                    &#xa;                    &#xa;&#xa;
                </mxCell>
                &#xa;                &#xa;&#xa;
            </root>
            &#xa;            &#xa;&#xa;
        </mxGraphModel>
        &#xa;        &#xa;&#xa;
    </diagram>
    <diagram id="GLAkmzAZZVmWoTvU4A4D" name="RBNode">
        <mxGraphModel dx="433" dy="910" grid="1" gridSize="10" guides="1" tooltips="1" connect="1" arrows="1" fold="1" page="1" pageScale="1" pageWidth="827" pageHeight="1169" math="0" shadow="0">
            <root>
                <mxCell id="0BiIPNXTo0_Mqy1-R1Cg-0"/>
                <mxCell id="0BiIPNXTo0_Mqy1-R1Cg-1" parent="0BiIPNXTo0_Mqy1-R1Cg-0"/>
                <mxCell id="op52oXSW2a1RKC0PICUQ-0" value="RBNode" style="swimlane;fontStyle=1;align=center;verticalAlign=top;childLayout=stackLayout;horizontal=1;startSize=26;horizontalStack=0;resizeParent=1;resizeParentMax=0;resizeLast=0;collapsible=1;marginBottom=0;fillColor=#e1d5e7;strokeColor=#9673a6;" parent="0BiIPNXTo0_Mqy1-R1Cg-1" vertex="1">
                    <mxGeometry x="310" y="260" width="310" height="216" as="geometry"/>
                </mxCell>
                <mxCell id="op52oXSW2a1RKC0PICUQ-1" value="+ value : Number" style="text;strokeColor=none;fillColor=none;align=left;verticalAlign=top;spacingLeft=4;spacingRight=4;overflow=hidden;rotatable=0;points=[[0,0.5],[1,0.5]];portConstraint=eastwest;" parent="op52oXSW2a1RKC0PICUQ-0" vertex="1">
                    <mxGeometry y="26" width="310" height="26" as="geometry"/>
                </mxCell>
                <mxCell id="op52oXSW2a1RKC0PICUQ-9" value="+ left: RBNode" style="text;strokeColor=none;fillColor=none;align=left;verticalAlign=top;spacingLeft=4;spacingRight=4;overflow=hidden;rotatable=0;points=[[0,0.5],[1,0.5]];portConstraint=eastwest;" parent="op52oXSW2a1RKC0PICUQ-0" vertex="1">
                    <mxGeometry y="52" width="310" height="26" as="geometry"/>
                </mxCell>
                <mxCell id="op52oXSW2a1RKC0PICUQ-10" value="+ right: RBNode" style="text;strokeColor=none;fillColor=none;align=left;verticalAlign=top;spacingLeft=4;spacingRight=4;overflow=hidden;rotatable=0;points=[[0,0.5],[1,0.5]];portConstraint=eastwest;" parent="op52oXSW2a1RKC0PICUQ-0" vertex="1">
                    <mxGeometry y="78" width="310" height="26" as="geometry"/>
                </mxCell>
                <mxCell id="op52oXSW2a1RKC0PICUQ-11" value="+ parent: RBNode" style="text;strokeColor=none;fillColor=none;align=left;verticalAlign=top;spacingLeft=4;spacingRight=4;overflow=hidden;rotatable=0;points=[[0,0.5],[1,0.5]];portConstraint=eastwest;" parent="op52oXSW2a1RKC0PICUQ-0" vertex="1">
                    <mxGeometry y="104" width="310" height="26" as="geometry"/>
                </mxCell>
                <mxCell id="op52oXSW2a1RKC0PICUQ-12" value="+ color: String" style="text;strokeColor=none;fillColor=none;align=left;verticalAlign=top;spacingLeft=4;spacingRight=4;overflow=hidden;rotatable=0;points=[[0,0.5],[1,0.5]];portConstraint=eastwest;" parent="op52oXSW2a1RKC0PICUQ-0" vertex="1">
                    <mxGeometry y="130" width="310" height="26" as="geometry"/>
                </mxCell>
                <mxCell id="op52oXSW2a1RKC0PICUQ-2" value="" style="line;strokeWidth=1;fillColor=none;align=left;verticalAlign=middle;spacingTop=-1;spacingLeft=3;spacingRight=3;rotatable=0;labelPosition=right;points=[];portConstraint=eastwest;" parent="op52oXSW2a1RKC0PICUQ-0" vertex="1">
                    <mxGeometry y="156" width="310" height="8" as="geometry"/>
                </mxCell>
                <mxCell id="op52oXSW2a1RKC0PICUQ-3" value="+ constructor(val : Number, color : String) : void&#10;" style="text;strokeColor=none;fillColor=none;align=left;verticalAlign=top;spacingLeft=4;spacingRight=4;overflow=hidden;rotatable=0;points=[[0,0.5],[1,0.5]];portConstraint=eastwest;" parent="op52oXSW2a1RKC0PICUQ-0" vertex="1">
                    <mxGeometry y="164" width="310" height="26" as="geometry"/>
                </mxCell>
                <mxCell id="op52oXSW2a1RKC0PICUQ-8" value="+ Copy(nil : RBNode ) : RBNode" style="text;strokeColor=none;fillColor=none;align=left;verticalAlign=top;spacingLeft=4;spacingRight=4;overflow=hidden;rotatable=0;points=[[0,0.5],[1,0.5]];portConstraint=eastwest;" parent="op52oXSW2a1RKC0PICUQ-0" vertex="1">
                    <mxGeometry y="190" width="310" height="26" as="geometry"/>
                </mxCell>
            </root>
        </mxGraphModel>
    </diagram>
    <diagram id="crDY_ERwb8svBG-L3rm8" name="DiagramTree">
        <mxGraphModel dx="433" dy="910" grid="1" gridSize="10" guides="1" tooltips="1" connect="1" arrows="1" fold="1" page="1" pageScale="1" pageWidth="827" pageHeight="1169" math="0" shadow="0">
            <root>
                <mxCell id="VuTsHSE4zJpt8mKYo43f-0"/>
                <mxCell id="VuTsHSE4zJpt8mKYo43f-1" parent="VuTsHSE4zJpt8mKYo43f-0"/>
                <mxCell id="rGUKV7DrS0ruYbYfbCro-13" value="DiagramTree" style="swimlane;fontStyle=1;align=center;verticalAlign=top;childLayout=stackLayout;horizontal=1;startSize=26;horizontalStack=0;resizeParent=1;resizeParentMax=0;resizeLast=0;collapsible=1;marginBottom=0;fillColor=#dae8fc;strokeColor=#6c8ebf;" parent="VuTsHSE4zJpt8mKYo43f-1" vertex="1">
                    <mxGeometry x="120" y="120" width="260" height="216" as="geometry"/>
                </mxCell>
                <mxCell id="rGUKV7DrS0ruYbYfbCro-1" value="+ trees: DiagramTree[]" style="text;strokeColor=none;fillColor=none;align=left;verticalAlign=top;spacingLeft=4;spacingRight=4;overflow=hidden;rotatable=0;points=[[0,0.5],[1,0.5]];portConstraint=eastwest;" parent="rGUKV7DrS0ruYbYfbCro-13" vertex="1">
                    <mxGeometry y="26" width="260" height="26" as="geometry"/>
                </mxCell>
                <mxCell id="rGUKV7DrS0ruYbYfbCro-15" value="" style="line;strokeWidth=1;fillColor=none;align=left;verticalAlign=middle;spacingTop=-1;spacingLeft=3;spacingRight=3;rotatable=0;labelPosition=right;points=[];portConstraint=eastwest;" parent="rGUKV7DrS0ruYbYfbCro-13" vertex="1">
                    <mxGeometry y="52" width="260" height="8" as="geometry"/>
                </mxCell>
                <mxCell id="rGUKV7DrS0ruYbYfbCro-2" value="+ constructor() : void&#10;" style="text;strokeColor=none;fillColor=none;align=left;verticalAlign=top;spacingLeft=4;spacingRight=4;overflow=hidden;rotatable=0;points=[[0,0.5],[1,0.5]];portConstraint=eastwest;" parent="rGUKV7DrS0ruYbYfbCro-13" vertex="1">
                    <mxGeometry y="60" width="260" height="26" as="geometry"/>
                </mxCell>
                <mxCell id="rGUKV7DrS0ruYbYfbCro-3" value="+ addRandomElements(num : Number) : void&#10;" style="text;strokeColor=none;fillColor=none;align=left;verticalAlign=top;spacingLeft=4;spacingRight=4;overflow=hidden;rotatable=0;points=[[0,0.5],[1,0.5]];portConstraint=eastwest;" parent="rGUKV7DrS0ruYbYfbCro-13" vertex="1">
                    <mxGeometry y="86" width="260" height="26" as="geometry"/>
                </mxCell>
                <mxCell id="rGUKV7DrS0ruYbYfbCro-4" value="+ maxDepth(node : RBNode) : Number&#10;" style="text;strokeColor=none;fillColor=none;align=left;verticalAlign=top;spacingLeft=4;spacingRight=4;overflow=hidden;rotatable=0;points=[[0,0.5],[1,0.5]];portConstraint=eastwest;" parent="rGUKV7DrS0ruYbYfbCro-13" vertex="1">
                    <mxGeometry y="112" width="260" height="26" as="geometry"/>
                </mxCell>
                <mxCell id="rGUKV7DrS0ruYbYfbCro-5" value="+ minDepth(node : RBNode):  Number&#10;" style="text;strokeColor=none;fillColor=none;align=left;verticalAlign=top;spacingLeft=4;spacingRight=4;overflow=hidden;rotatable=0;points=[[0,0.5],[1,0.5]];portConstraint=eastwest;" parent="rGUKV7DrS0ruYbYfbCro-13" vertex="1">
                    <mxGeometry y="138" width="260" height="26" as="geometry"/>
                </mxCell>
                <mxCell id="rGUKV7DrS0ruYbYfbCro-7" value="+ blackDepth(node : RBNode): Number&#10;" style="text;strokeColor=none;fillColor=none;align=left;verticalAlign=top;spacingLeft=4;spacingRight=4;overflow=hidden;rotatable=0;points=[[0,0.5],[1,0.5]];portConstraint=eastwest;" parent="rGUKV7DrS0ruYbYfbCro-13" vertex="1">
                    <mxGeometry y="164" width="260" height="26" as="geometry"/>
                </mxCell>
                <mxCell id="rGUKV7DrS0ruYbYfbCro-6" value="+ init() : void&#10;" style="text;strokeColor=none;fillColor=none;align=left;verticalAlign=top;spacingLeft=4;spacingRight=4;overflow=hidden;rotatable=0;points=[[0,0.5],[1,0.5]];portConstraint=eastwest;" parent="rGUKV7DrS0ruYbYfbCro-13" vertex="1">
                    <mxGeometry y="190" width="260" height="26" as="geometry"/>
                </mxCell>
            </root>
        </mxGraphModel>
    </diagram>
</mxfile>